<?xml version="1.0" encoding="UTF-8" standalone="no"?>
<svg width="24px" height="24px" viewBox="0 0 24 24" version="1.1" xmlns="http://www.w3.org/2000/svg" xmlns:xlink="http://www.w3.org/1999/xlink">
    <!-- Generator: Sketch 49.1 (51147) - http://www.bohemiancoding.com/sketch -->
    <title>图标 Icon/WeChat Official Accounts</title>
    <desc>Created with Sketch.</desc>
    <defs>
        <path d="M12,24 C5.372583,24 0,18.627417 0,12 C0,5.372583 5.372583,0 12,0 C18.627417,0 24,5.372583 24,12 C24,18.627417 18.627417,24 12,24 Z M12,23 C18.0751322,23 23,18.0751322 23,12 C23,5.92486775 18.0751322,1 12,1 C5.92486775,1 1,5.92486775 1,12 C1,18.0751322 5.92486775,23 12,23 Z M13.1181383,13.0624325 C13.1181383,12.0590815 14.6685385,11.4234104 14.6685385,9.09543554 C14.6685385,7.12951195 13.3979585,6.00000001 11.8121448,6 C10.2269613,6 8.9562347,7.12951193 8.9562347,9.09543554 C8.9562347,11.4234104 10.5061512,12.0590815 10.5061512,13.0624325 C10.5061512,14.6873537 7,14.2388205 7,15.8179649 C7,17.1447875 8.33919384,16.99491 8.33919384,16.99491 L15.2855794,16.99491 C15.8249917,16.99491 16.6247732,16.756821 16.6247732,15.8179649 C16.6248465,14.2388205 13.1181383,14.6873537 13.1181383,13.0624325 Z M11.8493546,16.185362 L11,15.0270472 L11.5662364,13 L12.1323263,13 L12.6986213,15.0270472 L11.8493546,16.185362 Z" id="path-1"></path>
    </defs>
    <g id="图标-Icon/WeChat-Official-Accounts" stroke="none" stroke-width="1" fill="none" fill-rule="evenodd">
        <mask id="mask-2" fill="white">
            <use xlink:href="#path-1"></use>
        </mask>
        <use id="Mask" fill-opacity="0.56" fill="#FFFFFF" fill-rule="nonzero" xlink:href="#path-1"></use>
        <g id="基础/颜色-Color/单色/深色/辅助色&amp;图标-55%" mask="url(#mask-2)" fill="#17233D" fill-opacity="0.55">
            <rect id="Rectangle" x="0" y="0" width="24" height="24"></rect>
        </g>
    </g>
</svg>