<?xml version="1.0" encoding="UTF-8" standalone="no"?>
<svg width="28px" height="28px" viewBox="0 0 28 28" version="1.1" xmlns="http://www.w3.org/2000/svg" xmlns:xlink="http://www.w3.org/1999/xlink">
    <!-- Generator: Sketch 46 (44423) - http://www.bohemiancoding.com/sketch -->
    <title>组件－过滤器</title>
    <desc>Created with Sketch.</desc>
    <defs>
        <polygon id="path-1" points="13.9999344 0 0 0 0 28 13.9999344 28 27.9998688 28 27.9998688 0"></polygon>
    </defs>
    <g id="Page-1" stroke="none" stroke-width="1" fill="none" fill-rule="evenodd">
        <g id="7新建营销流程" transform="translate(-106.000000, -297.000000)">
            <g id="组件" transform="translate(80.000000, 120.000000)">
                <g id="Group-10" transform="translate(1.000000, 49.000000)">
                    <g id="组件－过滤器" transform="translate(25.000000, 128.000000)">
                        <g id="Group-3">
                            <mask id="mask-2" fill="white">
                                <use xlink:href="#path-1"></use>
                            </mask>
                            <g id="Clip-2"></g>
                            <path d="M22.7498688,28 L5.24986875,28 C2.36236875,28 -0.00013125,25.6375 -0.00013125,22.75 L-0.00013125,5.25 C-0.00013125,2.3625 2.36236875,0 5.24986875,0 L22.7498688,0 C25.6378063,0 27.9998688,2.3625 27.9998688,5.25 L27.9998688,22.75 C27.9998688,25.6375 25.6378063,28 22.7498688,28" id="Fill-1" fill="#30B9A5" mask="url(#mask-2)"></path>
                        </g>
                        <path d="M13.8516,16.4959812 L17.4706,11.5041062 C17.576475,11.3820437 17.4894125,11.1926062 17.327975,11.1926062 C17.327975,11.1926062 15.3321,12.7264812 13.423725,11.5666687 C11.51535,10.4068562 10.0895375,11.1926062 10.0895375,11.1926062 C9.9285375,11.1926062 9.8419125,11.3820437 9.9469125,11.5041062 L13.56635,16.4959812 C13.6416,16.5830437 13.77635,16.5830437 13.8516,16.4959812" id="Fill-4" fill="#FFFFFF"></path>
                        <path d="M15.42345,22.687175 C14.94045,22.687175 14.54845,22.295175 14.54845,21.812175 L14.54845,17.979675 C14.54845,17.8038 14.6013875,17.631425 14.7011375,17.4857375 L17.84545,12.8849875 C17.862075,12.8604875 17.8800125,12.8368625 17.8992625,12.81455 L19.1807,11.296425 C19.2135125,11.25705 19.2318875,11.207175 19.2318875,11.1551125 L19.2318875,9.752925 L8.12595,9.752925 L8.12595,11.1411125 C8.12595,11.1944875 8.1456375,11.24655 8.181075,11.2863625 C8.1955125,11.3029875 8.2095125,11.32005 8.2226375,11.33755 L12.8487625,17.4516125 C12.963825,17.6038625 13.0263875,17.7893625 13.0263875,17.979675 L13.0263875,20.2209875 C13.0263875,20.704425 12.6343875,21.0959875 12.1513875,21.0959875 C11.66795,21.0959875 11.2763875,20.704425 11.2763875,20.2209875 L11.2763875,18.2732375 L6.8445125,12.41555 C6.5417625,12.0598625 6.37595,11.6092375 6.37595,11.1411125 L6.37595,9.7048 C6.37595,8.7663625 7.139825,8.002925 8.0787,8.002925 L19.279575,8.002925 C20.21845,8.002925 20.9818875,8.7663625 20.9818875,9.7048 L20.9818875,11.1551125 C20.9818875,11.6197375 20.81695,12.0703625 20.5181375,12.425175 L19.2651375,13.909175 L16.29845,18.25005 L16.29845,21.812175 C16.29845,22.295175 15.90645,22.687175 15.42345,22.687175" id="Fill-6" fill="#FFFFFF"></path>
                    </g>
                </g>
            </g>
        </g>
    </g>
</svg>