<?xml version="1.0" encoding="UTF-8" standalone="no"?>
<svg width="32px" height="32px" viewBox="0 0 32 32" version="1.1" xmlns="http://www.w3.org/2000/svg" xmlns:xlink="http://www.w3.org/1999/xlink">
    <!-- Generator: Sketch 46 (44423) - http://www.bohemiancoding.com/sketch -->
    <title>组件－短信通知</title>
    <desc>Created with Sketch.</desc>
    <defs>
        <polygon id="path-1" points="16.0000941 0 32 0 32 32 16.0000941 32 0.000188235294 32 0.000188235294 0"></polygon>
    </defs>
    <g id="Page-1" stroke="none" stroke-width="1" fill="none" fill-rule="evenodd">
        <g id="7新建营销流程" transform="translate(-105.000000, -629.000000)">
            <g id="组件" transform="translate(80.000000, 120.000000)">
                <g id="Group-10" transform="translate(1.000000, 49.000000)">
                    <g id="组件－短信通知" transform="translate(24.000000, 460.000000)">
                        <path d="M8.25247059,9.87637647 C8.25247059,8.91590588 9.03082353,8.13755294 9.99129412,8.13755294 L17.7451765,8.13755294 C18.7056471,8.13755294 19.484,8.91590588 19.484,9.87637647 L19.484,14.2241412 C19.484,15.1846118 18.7056471,15.9634353 17.7451765,15.9634353 L11.7785882,15.9634353 L8.29952941,17.4072 L8.25247059,9.87637647 Z" id="Fill-1" fill="#FFFFFF"></path>
                        <g id="Group-5">
                            <mask id="mask-2" fill="white">
                                <use xlink:href="#path-1"></use>
                            </mask>
                            <g id="Clip-4"></g>
                            <path d="M32.0001882,16 C32.0001882,24.8362353 24.8364235,32 16.0001882,32 C7.16348235,32 0.000188235294,24.8362353 0.000188235294,16 C0.000188235294,7.16376471 7.16348235,0 16.0001882,0 C24.8364235,0 32.0001882,7.16376471 32.0001882,16" id="Fill-3" fill="#30B9A5" mask="url(#mask-2)"></path>
                        </g>
                        <path d="M21.3140235,8.45082353 L12.0152,8.45082353 C10.8632,8.45082353 9.92955294,9.45552941 9.92955294,10.6950588 L9.92955294,16.3044706 C9.92955294,17.544 10.8632,18.5487059 12.0152,18.5487059 L19.1704941,18.5487059 L23.3432,20.4112941 L23.3996706,10.6950588 C23.3996706,9.45552941 22.4655529,8.45082353 21.3140235,8.45082353 M21.3140235,10.3331765 C21.3855529,10.3331765 21.5173176,10.4705882 21.5173176,10.6837647 L21.4777882,17.5171765 L19.9380235,16.8296471 C19.6966118,16.7218824 19.4354353,16.6663529 19.1704941,16.6663529 L12.0152,16.6663529 C11.9436706,16.6663529 11.8119059,16.5289412 11.8119059,16.3044706 L11.8119059,10.6950588 C11.8119059,10.4705882 11.9436706,10.3331765 12.0152,10.3331765 L21.3140235,10.3331765" id="Fill-6" fill="#FFFFFF"></path>
                        <path d="M13.8305882,12.6291294 C14.3397647,12.6606588 14.7270588,13.1072471 14.696,13.6258353 C14.6649412,14.1448941 14.2277647,14.5397176 13.7185882,14.5077176 C13.2098824,14.4766588 12.8221176,14.0305412 12.8531765,13.5114824 C12.8842353,12.9924235 13.3218824,12.5976 13.8305882,12.6291294" id="Fill-8" fill="#FFFFFF"></path>
                        <path d="M16.8034824,12.6291294 C17.3126588,12.6606588 17.6999529,13.1072471 17.6688941,13.6258353 C17.6378353,14.1448941 17.2006588,14.5397176 16.6914824,14.5077176 C16.1827765,14.4766588 15.7950118,14.0305412 15.8260706,13.5114824 C15.8571294,12.9924235 16.2947765,12.5976 16.8034824,12.6291294" id="Fill-10" fill="#FFFFFF"></path>
                        <path d="M19.7763765,12.6291294 C20.2855529,12.6606588 20.6728471,13.1072471 20.6417882,13.6258353 C20.6107294,14.1448941 20.1735529,14.5397176 19.6643765,14.5077176 C19.1556706,14.4766588 18.7679059,14.0305412 18.7989647,13.5114824 C18.8300235,12.9924235 19.2676706,12.5976 19.7763765,12.6291294" id="Fill-12" fill="#FFFFFF"></path>
                        <path d="M10.7529412,20.1020235 C10.2334118,20.1020235 9.81176471,19.6803765 9.81176471,19.1608471 L9.81176471,18.5241412 C9.81176471,18.0827294 9.45364706,17.7250824 9.01223529,17.7250824 C9.01223529,17.7250824 8.21317647,17.7057882 8.21317647,18.5293176 L8.24047059,23.4507294 L11.4418824,22.1222588 L16.9317647,22.1222588 C17.8155294,22.1222588 18.5317647,21.4060235 18.5317647,20.5222588 L18.5317647,20.1020235 L10.7529412,20.1020235 Z" id="Fill-14" fill="#FFFFFF"></path>
                    </g>
                </g>
            </g>
        </g>
    </g>
</svg>