<?xml version="1.0" encoding="UTF-8"?>
<svg width="32px" height="32px" viewBox="0 0 32 32" version="1.1" xmlns="http://www.w3.org/2000/svg" xmlns:xlink="http://www.w3.org/1999/xlink">
    <!-- Generator: Sketch 50 (54983) - http://www.bohemiancoding.com/sketch -->
    <title>邮件</title>
    <desc>Created with Sketch.</desc>
    <defs>
        <polygon id="path-1" points="16.0000941 0 32 0 32 32 16.0000941 32 0.000188235294 32 0.000188235294 0"></polygon>
        <path d="M13.3333333,2.66666667 L2.66666667,2.66666667 C1.93333333,2.66666667 1.34,3.26666667 1.34,4 L1.33333333,12 C1.33333333,12.7333333 1.93333333,13.3333333 2.66666667,13.3333333 L13.3333333,13.3333333 C14.0666667,13.3333333 14.6666667,12.7333333 14.6666667,12 L14.6666667,4 C14.6666667,3.26666667 14.0666667,2.66666667 13.3333333,2.66666667 L13.3333333,2.66666667 Z M13.3333333,5.33333333 L8,8.66666667 L2.66666667,5.33333333 L2.66666667,4 L8,7.33333333 L13.3333333,4 L13.3333333,5.33333333 L13.3333333,5.33333333 Z" id="path-3"></path>
    </defs>
    <g id="营销" stroke="none" stroke-width="1" fill="none" fill-rule="evenodd">
        <g id="33营销-新建营销流程-微信活动推广-文字" transform="translate(-214.000000, -570.000000)">
            <g id="组件" transform="translate(200.000000, 105.000000)">
                <g id="Group-10" transform="translate(0.000000, 10.000000)">
                    <g id="邮件" transform="translate(14.000000, 455.000000)">
                        <g id="Group-5">
                            <mask id="mask-2" fill="white">
                                <use xlink:href="#path-1"></use>
                            </mask>
                            <g id="Clip-4"></g>
                            <path d="M32.0001882,16 C32.0001882,24.8362353 24.8364235,32 16.0001882,32 C7.16348235,32 0.000188235294,24.8362353 0.000188235294,16 C0.000188235294,7.16376471 7.16348235,0 16.0001882,0 C24.8364235,0 32.0001882,7.16376471 32.0001882,16" id="Fill-3" fill="#F1C854" mask="url(#mask-2)"></path>
                        </g>
                        <g id="图标-Icon/email" transform="translate(8.000000, 8.000000)">
                            <polygon id="Bounds" points="0 0 16 0 16 16 0 16"></polygon>
                            <mask id="mask-4" fill="white">
                                <use xlink:href="#path-3"></use>
                            </mask>
                            <g id="Mask"></g>
                            <g id="基础/颜色-Color/单色/白色-100%" mask="url(#mask-4)" fill="#FFFFFF" fill-rule="evenodd">
                                <rect id="Rectangle" x="0" y="0" width="16" height="16"></rect>
                            </g>
                        </g>
                    </g>
                </g>
            </g>
        </g>
    </g>
</svg>