<?xml version="1.0" encoding="UTF-8" standalone="no"?>
<svg width="28px" height="28px" viewBox="0 0 28 28" version="1.1" xmlns="http://www.w3.org/2000/svg" xmlns:xlink="http://www.w3.org/1999/xlink">
    <!-- Generator: Sketch 46 (44423) - http://www.bohemiancoding.com/sketch -->
    <title>组件－入口</title>
    <desc>Created with Sketch.</desc>
    <defs></defs>
    <g id="Page-1" stroke="none" stroke-width="1" fill="none" fill-rule="evenodd">
        <g id="7新建营销流程" transform="translate(-106.000000, -169.000000)">
            <g id="组件" transform="translate(80.000000, 120.000000)">
                <g id="Group-10" transform="translate(1.000000, 49.000000)">
                    <g id="组件－入口" transform="translate(25.000000, 0.000000)">
                        <path d="M22.75,28 L5.25,28 C2.3625,28 0,25.6375 0,22.75 L0,5.25 C0,2.3625 2.3625,0 5.25,0 L22.75,0 C25.6375,0 28,2.3625 28,5.25 L28,22.75 C28,25.6375 25.6375,28 22.75,28" id="Fill-1" fill="#EB5359"></path>
                        <path d="M20.125,21.4375 L8.3125,21.4375 C7.8295,21.4375 7.4375,21.0455 7.4375,20.5625 L7.4375,17.6929375 C7.4375,17.2099375 7.8295,16.8179375 8.3125,16.8179375 C8.7955,16.8179375 9.1875,17.2099375 9.1875,17.6929375 L9.1875,19.6875 L19.25,19.6875 L19.25,9.625 L8.3125,9.625 C7.8295,9.625 7.4375,9.233 7.4375,8.75 C7.4375,8.267 7.8295,7.875 8.3125,7.875 L20.125,7.875 C20.608,7.875 21,8.267 21,8.75 L21,20.5625 C21,21.0455 20.608,21.4375 20.125,21.4375" id="Fill-3" fill="#FFFFFF"></path>
                        <path d="M15.7486416,14.875 L8.75135836,14.875 C8.26760854,14.875 7.875,14.483 7.875,14 C7.875,13.517 8.26760854,13.125 8.75135836,13.125 L15.7486416,13.125 C16.2323915,13.125 16.625,13.517 16.625,14 C16.625,14.483 16.2323915,14.875 15.7486416,14.875" id="Fill-5" fill="#FFFFFF"></path>
                        <polygon id="Fill-7" fill="#FFFFFF" points="17.0625 14.21875 12.6875 10.9375 12.6875 17.5"></polygon>
                    </g>
                </g>
            </g>
        </g>
    </g>
</svg>