<?xml version="1.0" encoding="UTF-8" standalone="no"?>
<svg width="28px" height="28px" viewBox="0 0 28 28" version="1.1" xmlns="http://www.w3.org/2000/svg" xmlns:xlink="http://www.w3.org/1999/xlink">
    <!-- Generator: Sketch 46 (44423) - http://www.bohemiancoding.com/sketch -->
    <title>组件－生成人群</title>
    <desc>Created with Sketch.</desc>
    <defs>
        <polygon id="path-1" points="13.9999563 0 0 0 0 28 13.9999562 28 27.9999125 28 27.9999125 0"></polygon>
    </defs>
    <g id="Page-1" stroke="none" stroke-width="1" fill="none" fill-rule="evenodd">
        <g id="7新建营销流程" transform="translate(-106.000000, -361.000000)">
            <g id="组件" transform="translate(80.000000, 120.000000)">
                <g id="Group-10" transform="translate(1.000000, 49.000000)">
                    <g id="组件－生成人群" transform="translate(25.000000, 192.000000)">
                        <g id="Group-3">
                            <mask id="mask-2" fill="white">
                                <use xlink:href="#path-1"></use>
                            </mask>
                            <g id="Clip-2"></g>
                            <path d="M22.7499125,28 L5.2499125,28 C2.3624125,28 -8.75e-05,25.6375 -8.75e-05,22.75 L-8.75e-05,5.25 C-8.75e-05,2.3625 2.3624125,0 5.2499125,0 L22.7499125,0 C25.63785,0 27.9999125,2.3625 27.9999125,5.25 L27.9999125,22.75 C27.9999125,25.6375 25.63785,28 22.7499125,28" id="Fill-1" fill="#30B9A5" mask="url(#mask-2)"></path>
                        </g>
                        <path d="M20.0980063,18.8283375 L20.0883813,18.8187125 C16.8968188,15.62715 11.6743813,15.62715 8.48281875,18.8187125 C7.86638125,19.4355875 8.07638125,20.4855875 8.88750625,20.8075875 C10.3973188,21.4078375 12.6360063,22.1638375 14.3339438,22.1638375 C16.0253188,22.1638375 18.2189438,21.413525 19.7007563,20.8145875 C20.5061938,20.4890875 20.7122563,19.4425875 20.0980063,18.8283375" id="Fill-4" fill="#FFFFFF"></path>
                        <path d="M17.1149562,12.7413562 C17.1149562,14.3010437 15.8501437,15.5654187 14.2904562,15.5654187 C12.7307687,15.5654187 11.4659562,14.3010437 11.4659562,12.7413562 C11.4659562,11.1812312 12.7307687,9.91685625 14.2904562,9.91685625 C15.8501437,9.91685625 17.1149562,11.1812312 17.1149562,12.7413562" id="Fill-6" fill="#FFFFFF"></path>
                        <path d="M21.3784813,15.3125 C20.8954813,15.3125 20.5034813,14.9205 20.5034813,14.4375 C20.5034813,11.011875 17.7161688,8.2245625 14.2905438,8.2245625 C10.8649188,8.2245625 8.07760625,11.011875 8.07760625,14.4375 C8.07760625,14.9205 7.68560625,15.3125 7.20260625,15.3125 C6.71916875,15.3125 6.32760625,14.9205 6.32760625,14.4375 C6.32760625,10.04675 9.89979375,6.4745625 14.2905438,6.4745625 C18.6812938,6.4745625 22.2534813,10.04675 22.2534813,14.4375 C22.2534813,14.9205 21.8614813,15.3125 21.3784813,15.3125" id="Fill-8" fill="#FFFFFF"></path>
                    </g>
                </g>
            </g>
        </g>
    </g>
</svg>