<?xml version="1.0" encoding="UTF-8" standalone="no"?>
<svg width="32px" height="32px" viewBox="0 0 32 32" version="1.1" xmlns="http://www.w3.org/2000/svg" xmlns:xlink="http://www.w3.org/1999/xlink">
    <!-- Generator: Sketch 46 (44423) - http://www.bohemiancoding.com/sketch -->
    <title>组件－分流器</title>
    <desc>Created with Sketch.</desc>
    <defs>
        <polygon id="path-1" points="0 31.5675676 0 0.194162162 31.3734054 0.194162162 31.3734054 31.5675676"></polygon>
    </defs>
    <g id="Page-1" stroke="none" stroke-width="1" fill="none" fill-rule="evenodd">
        <g id="7新建营销流程" transform="translate(-105.000000, -425.000000)">
            <g id="组件" transform="translate(80.000000, 120.000000)">
                <g id="Group-10" transform="translate(1.000000, 49.000000)">
                    <g id="组件－分流器" transform="translate(24.000000, 256.000000)">
                        <g id="Group-3" transform="translate(0.000000, 0.238097)">
                            <mask id="mask-2" fill="white">
                                <use xlink:href="#path-1"></use>
                            </mask>
                            <g id="Clip-2"></g>
                            <path d="M12.0172973,30.0540973 L1.51351351,19.5503135 C-0.504648649,17.5321514 -0.504648649,14.2296649 1.51351351,12.2115027 L12.0172973,1.70771892 C14.0354595,-0.310443243 17.3379459,-0.310443243 19.3561081,1.70771892 L29.8598919,12.2115027 C31.8780541,14.2296649 31.8780541,17.5321514 29.8598919,19.5503135 L19.3561081,30.0540973 C17.3379459,32.0722595 14.0354595,32.0722595 12.0172973,30.0540973" id="Fill-1" fill="#30B9A5" mask="url(#mask-2)"></path>
                        </g>
                        <path d="M13.5516973,16.7512216 L9.20056216,16.7512216 C8.72315676,16.7512216 8.3356973,16.3637622 8.3356973,15.8863568 C8.3356973,15.4089514 8.72315676,15.0214919 9.20056216,15.0214919 L13.2476973,15.0214919 L18.8464,10.5354378 C19.2187243,10.2361946 19.7631568,10.2967351 20.0619676,10.6694919 C20.3607784,11.0422486 20.3006703,11.5866811 19.9279135,11.8850595 L14.0922378,16.5613838 C13.9391568,16.6841946 13.7484541,16.7512216 13.5516973,16.7512216" id="Fill-4" fill="#FFFFFF"></path>
                        <path d="M19.7793297,21.9695568 C19.5652757,21.9695568 19.3503568,21.8904216 19.1834378,21.7308541 L16.0677622,18.7648 C15.7218162,18.4352865 15.7084108,17.8882595 16.0379243,17.5423135 C16.3674378,17.1963676 16.9148973,17.1829622 17.2604108,17.5120432 L20.3756541,20.4785297 C20.7220324,20.8076108 20.7350054,21.3550703 20.4059243,21.7010162 C20.2359784,21.8796108 20.0076541,21.9695568 19.7793297,21.9695568" id="Fill-6" fill="#FFFFFF"></path>
                        <polyline id="Fill-8" fill="#FFFFFF" points="16.7222919 22.9674378 21.9836973 23.3998703 21.5512649 18.1384649"></polyline>
                        <polygon id="Fill-10" fill="#FFFFFF" points="21.8048865 9.10555676 16.1927784 9.29193514 20.5711568 14.5836108"></polygon>
                    </g>
                </g>
            </g>
        </g>
    </g>
</svg>