<?xml version="1.0" encoding="UTF-8" standalone="no"?>
<svg width="44px" height="44px" viewBox="0 0 44 44" version="1.1" xmlns="http://www.w3.org/2000/svg" xmlns:xlink="http://www.w3.org/1999/xlink">
    <!-- Generator: Sketch 46 (44423) - http://www.bohemiancoding.com/sketch -->
    <title>组件－结束</title>
    <desc>Created with Sketch.</desc>
    <defs>
        <polygon id="path-1" points="21.9998281 0 0 0 0 44 21.9998281 44 43.9996563 44 43.9996563 0"></polygon>
    </defs>
    <g id="Page-1" stroke="none" stroke-width="1" fill="none" fill-rule="evenodd">
        <g id="7新建营销流程" transform="translate(-1310.000000, -409.000000)">
            <g id="流程" transform="translate(216.000000, 310.000000)">
                <g id="Group-7-Copy" transform="translate(1094.000000, 99.000000)">
                    <g id="组件－结束">
                        <g id="Group-3">
                            <mask id="mask-2" fill="white">
                                <use xlink:href="#path-1"></use>
                            </mask>
                            <g id="Clip-2"></g>
                            <path d="M35.7496563,44 L8.24965625,44 C3.71215625,44 -0.00034375,40.2875 -0.00034375,35.75 L-0.00034375,8.25 C-0.00034375,3.7125 3.71215625,0 8.24965625,0 L35.7496563,0 C40.2878438,0 43.9996563,3.7125 43.9996563,8.25 L43.9996563,35.75 C43.9996563,40.2875 40.2878438,44 35.7496563,44" id="Fill-1" fill="#498CE8" mask="url(#mask-2)"></path>
                        </g>
                        <path d="M22.2704403,22.7785954 C21.832077,22.7785954 21.4591345,22.6248545 21.1483358,22.3108986 C20.8374971,22.0000999 20.6804392,21.6271574 20.6804392,21.1886343 L20.6804392,11.6129403 C20.6804392,11.174577 20.8374971,10.7981976 21.1483358,10.4776877 C21.4591345,10.1570579 21.832077,10 22.2704403,10 C22.7251887,10 23.1046853,10.1603349 23.418761,10.4776877 C23.7295597,10.7981976 23.8866176,11.174577 23.8866176,11.6129403 L23.8866176,21.1919113 C23.8866176,21.6304345 23.7295597,22.0033769 23.418761,22.3141757 C23.1079623,22.6216974 22.7251887,22.7785954 22.2704403,22.7785954 M28.7481379,13.4776527 C29.503894,14.0142071 30.1778041,14.6259735 30.7633542,15.3064776 C31.3523811,15.9869418 31.8561252,16.7229957 32.2748263,17.5114821 C32.6936472,18.3000085 33.0142771,19.1373707 33.2334787,20.0207712 C33.4526404,20.9040518 33.5605027,21.7971636 33.5605027,22.7066205 C33.5605027,24.2705252 33.2628122,25.7360788 32.667431,27.1036012 C32.0720098,28.4744007 31.2640211,29.6653229 30.2465019,30.6826822 C29.2291426,31.7002013 28.0381804,32.504953 26.667381,33.1036512 C25.2965816,33.6990324 23.8310279,34 22.2704403,34 C20.7230806,34 19.2671982,33.7023094 17.8963988,33.1036512 C16.5256393,32.5082301 15.3282829,31.7002013 14.3042097,30.6826822 C13.2802963,29.6653229 12.4722676,28.4744007 11.8832806,27.1036012 C11.2944136,25.7328018 11,24.2672481 11,22.7066205 C11,21.8168258 11.1047452,20.9433762 11.3140758,20.086192 C11.5234463,19.2290077 11.8211369,18.4144249 12.2071875,17.6423237 C12.5932381,16.8701825 13.0742028,16.1472767 13.6434077,15.4733266 C14.2160095,14.8026936 14.8538722,14.1974813 15.5605527,13.6576498 C15.9302182,13.3892927 16.3293769,13.2879844 16.7579091,13.3566422 C17.1864413,13.4253401 17.5365644,13.6346706 17.8047617,13.9879509 C18.0731188,14.341391 18.1744271,14.7372728 18.1057693,15.172359 C18.0469026,15.6041682 17.834295,15.9574485 17.4841319,16.2257657 C16.4241711,16.9979069 15.4297511,17.9465684 14.8669804,19.0752269 C14.3042097,20.2006084 14.0229043,21.411073 14.0229043,22.7033435 C14.0229043,23.8124997 14.2322348,24.8593923 14.6543328,25.8408241 C15.0730339,26.8222958 15.835304,27.9575085 16.5649637,28.6871681 C17.2944635,29.4166679 18.1516478,29.998941 19.1363966,30.427633 C20.1178284,30.8561252 21.1647209,31.0687728 22.2737173,31.0687728 C23.3828735,31.0687728 24.4297261,30.8561252 25.4111579,30.427633 C26.3926297,29.998941 27.2498139,29.4199449 27.9825908,28.6871681 C28.7120906,27.9575085 29.4776377,26.8222958 29.9063298,25.8408241 C30.3348619,24.8593923 30.5474695,23.8124997 30.5474695,22.7033435 C30.5474695,21.3915706 30.2465019,20.1548898 29.6412497,18.9868669 C29.0360374,17.8190438 28.002253,16.8572342 26.9095219,16.1015181 C26.5398564,15.8495462 26.3173778,15.5059771 26.2421259,15.0676138 C26.1669139,14.6292505 26.255274,14.2268147 26.5070461,13.8571493 C26.7590181,13.503869 27.1026271,13.2912614 27.5409504,13.2160095 C27.9760367,13.1374806 28.3784725,13.2256808 28.7481379,13.4776527" id="Page-1" fill="#FFFFFF"></path>
                    </g>
                </g>
            </g>
        </g>
    </g>
</svg>