<?xml version="1.0" encoding="UTF-8" standalone="no"?>
<svg width="32px" height="32px" viewBox="0 0 32 32" version="1.1" xmlns="http://www.w3.org/2000/svg" xmlns:xlink="http://www.w3.org/1999/xlink">
    <!-- Generator: Sketch 46 (44423) - http://www.bohemiancoding.com/sketch -->
    <title>组件触发器</title>
    <desc>Created with Sketch.</desc>
    <defs></defs>
    <g id="Page-1" stroke="none" stroke-width="1" fill="none" fill-rule="evenodd">
        <g id="7新建营销流程" transform="translate(-105.000000, -493.000000)">
            <g id="组件" transform="translate(80.000000, 120.000000)">
                <g id="Group-10" transform="translate(1.000000, 49.000000)">
                    <g id="组件触发器" transform="translate(24.000000, 324.000000)">
                        <g id="Group-3" fill="#EB5359">
                            <path d="M12.2573778,30.4563111 L1.54404444,19.7429778 C-0.514622222,17.6843111 -0.514622222,14.3158667 1.54404444,12.2572 L12.2573778,1.54386667 C14.3156,-0.5148 17.6840444,-0.5148 19.7427111,1.54386667 L30.4560444,12.2572 C32.5147111,14.3158667 32.5147111,17.6843111 30.4560444,19.7429778 L19.7427111,30.4563111 C17.6840444,32.5145333 14.3156,32.5145333 12.2573778,30.4563111" id="Fill-1"></path>
                        </g>
                        <path d="M22.1293333,23.1663556 C21.9151111,23.1663556 21.6995556,23.0890222 21.5288889,22.9325778 L17.0977778,18.8676889 C16.7355556,18.5361333 16.7115556,17.9734667 17.0435556,17.6121333 C17.3751111,17.2499111 17.9368889,17.2259111 18.2991111,17.5579111 L22.7306667,21.6223556 C23.0924444,21.9539111 23.1168889,22.5165778 22.7848889,22.8783556 C22.6093333,23.0694667 22.3697778,23.1663556 22.1293333,23.1663556" id="Fill-4" fill="#FFFFFF"></path>
                        <polygon id="Fill-6" fill="#FFFFFF" points="15.9110222 16.4706222 17.3430222 21.8141778 21.2545778 17.9026222"></polygon>
                        <path d="M15.4362222,23.4828 C15.4255556,23.4828 15.4144444,23.4828 15.4033333,23.4823556 C11.3886667,23.3361333 8.24288889,20.0721333 8.24288889,16.0521333 C8.24288889,11.9521333 11.5784444,8.61657778 15.6784444,8.61657778 C19.6953333,8.61657778 22.9593333,11.7596889 23.1086667,15.7716889 C23.1268889,16.2619111 22.7433333,16.6748 22.2531111,16.6930222 C21.7473333,16.6988 21.35,16.3276889 21.3317778,15.8374667 C21.2184444,12.7854667 18.7348889,10.3943556 15.6784444,10.3943556 C12.5584444,10.3943556 10.0206667,12.9321333 10.0206667,16.0521333 C10.0206667,19.1108 12.4135556,21.5943556 15.4682222,21.7054667 C15.9588889,21.7236889 16.342,22.1356889 16.3242222,22.6263556 C16.3064444,23.1054667 15.9122222,23.4828 15.4362222,23.4828" id="Fill-8" fill="#FFFFFF"></path>
                        <path d="M14.5260444,19.7918222 C14.4069333,19.7918222 14.2860444,19.7673778 14.1696,19.7167111 C12.7118222,19.0780444 11.7696,17.6367111 11.7696,16.0456 C11.7696,13.8358222 13.5669333,12.0384889 15.7762667,12.0384889 C17.3789333,12.0384889 18.8238222,12.9896 19.4576,14.4611556 C19.6513778,14.9122667 19.4433778,15.4353778 18.9927111,15.6291556 C18.5407111,15.8233778 18.0184889,15.6149333 17.8247111,15.1642667 C17.4722667,14.3456 16.6678222,13.8162667 15.7762667,13.8162667 C14.5473778,13.8162667 13.5473778,14.8162667 13.5473778,16.0456 C13.5473778,16.9309333 14.0718222,17.7327111 14.8833778,18.0882667 C15.3327111,18.2851556 15.5376,18.8096 15.3407111,19.2593778 C15.1944889,19.5927111 14.8687111,19.7918222 14.5260444,19.7918222" id="Fill-10" fill="#FFFFFF"></path>
                    </g>
                </g>
            </g>
        </g>
    </g>
</svg>