<?xml version="1.0" encoding="UTF-8" standalone="no"?>
<svg width="28px" height="28px" viewBox="0 0 28 28" version="1.1" xmlns="http://www.w3.org/2000/svg" xmlns:xlink="http://www.w3.org/1999/xlink">
    <!-- Generator: Sketch 46 (44423) - http://www.bohemiancoding.com/sketch -->
    <title>组件－计时器</title>
    <desc>Created with Sketch.</desc>
    <defs>
        <polygon id="path-1" points="13.9999344 0 0 0 0 28 13.9999344 28 27.9998688 28 27.9998688 0"></polygon>
    </defs>
    <g id="Page-1" stroke="none" stroke-width="1" fill="none" fill-rule="evenodd">
        <g id="7新建营销流程" transform="translate(-106.000000, -233.000000)">
            <g id="组件" transform="translate(80.000000, 120.000000)">
                <g id="Group-10" transform="translate(1.000000, 49.000000)">
                    <g id="组件－计时器" transform="translate(25.000000, 64.000000)">
                        <g id="Group-3">
                            <mask id="mask-2" fill="white">
                                <use xlink:href="#path-1"></use>
                            </mask>
                            <g id="Clip-2"></g>
                            <path d="M22.7498688,28 L5.24986875,28 C2.36236875,28 -0.00013125,25.6375 -0.00013125,22.75 L-0.00013125,5.25 C-0.00013125,2.3625 2.36236875,0 5.24986875,0 L22.7498688,0 C25.6378063,0 27.9998688,2.3625 27.9998688,5.25 L27.9998688,22.75 C27.9998688,25.6375 25.6378063,28 22.7498688,28" id="Fill-1" fill="#498CE8" mask="url(#mask-2)"></path>
                        </g>
                        <path d="M14.0421313,22.9123562 C10.2328187,22.9123562 7.13356875,19.8131062 7.13356875,16.0037937 C7.13356875,12.1944813 10.2328187,9.09523125 14.0421313,9.09523125 C14.5251312,9.09523125 14.9171313,9.48679375 14.9171313,9.97023125 C14.9171313,10.4532312 14.5251312,10.8452312 14.0421313,10.8452312 C11.1975062,10.8452312 8.88356875,13.1591687 8.88356875,16.0037937 C8.88356875,18.8484188 11.1975062,21.1623562 14.0421313,21.1623562 C16.8867563,21.1623562 19.2006937,18.8484188 19.2006937,16.0037937 C19.2006937,14.1925438 18.2320687,12.4924187 16.6732563,11.5649188 C16.2571937,11.3186063 16.1211313,10.7813562 16.3678812,10.3661687 C16.6141937,9.95010625 17.1510063,9.81316875 17.5670688,10.0612312 C19.6539437,11.3015437 20.9506937,13.5787313 20.9506937,16.0037937 C20.9506937,19.8131062 17.8514437,22.9123562 14.0421313,22.9123562" id="Fill-4" fill="#FFFFFF"></path>
                        <path d="M15.8575375,8.39195 L12.2892875,8.39195 C11.80585,8.39195 11.4142875,7.99995 11.4142875,7.51695 C11.4142875,7.03395 11.80585,6.64195 12.2892875,6.64195 L15.8575375,6.64195 C16.3405375,6.64195 16.7325375,7.03395 16.7325375,7.51695 C16.7325375,7.99995 16.3405375,8.39195 15.8575375,8.39195" id="Fill-6" fill="#FFFFFF"></path>
                        <path d="M14.1011063,10.7896687 C13.6181063,10.7896687 13.2261063,10.3976687 13.2261063,9.91466875 L13.2261063,7.98135625 C13.2261063,7.49835625 13.6181063,7.10635625 14.1011063,7.10635625 C14.5841063,7.10635625 14.9761063,7.49835625 14.9761063,7.98135625 L14.9761063,9.91466875 C14.9761063,10.3976687 14.5841063,10.7896687 14.1011063,10.7896687" id="Fill-8" fill="#FFFFFF"></path>
                        <path d="M14.8483563,14.1670375 L14.8483563,15.9109125 C14.8483563,16.3641625 14.5154188,16.7316625 14.1050438,16.7316625 C13.6946688,16.7316625 13.3621688,16.3641625 13.3621688,15.9109125 L13.3621688,14.1670375 C13.3621688,13.7137875 14.1050438,12.294975 14.1050438,12.294975 C14.1050438,12.294975 14.8483563,13.7137875 14.8483563,14.1670375 M11.2949812,13.2566 C9.77773125,14.77385 9.77773125,17.2339125 11.2949812,18.7511625 C12.8122312,20.267975 15.2718562,20.267975 16.7891062,18.7511625 C18.3059188,17.2339125 18.3059188,14.77385 16.7891062,13.2566 C15.2718562,11.73935 12.8122312,11.73935 11.2949812,13.2566" id="Fill-10" fill="#FFFFFF"></path>
                        <path d="M21.2660438,11.811625 C21.0420437,11.811625 20.8184812,11.7263125 20.6474187,11.55525 L19.2719187,10.1801875 C18.9302312,9.8380625 18.9302312,9.284625 19.2719187,8.9425 C19.6140437,8.6008125 20.1674812,8.6008125 20.5096062,8.9425 L21.8846687,10.318 C22.2263563,10.6596875 22.2263563,11.2135625 21.8846687,11.55525 C21.7136063,11.7263125 21.4900437,11.811625 21.2660438,11.811625" id="Fill-12" fill="#FFFFFF"></path>
                    </g>
                </g>
            </g>
        </g>
    </g>
</svg>