<?xml version="1.0" encoding="UTF-8" standalone="no"?>
<svg width="32px" height="32px" viewBox="0 0 32 32" version="1.1" xmlns="http://www.w3.org/2000/svg" xmlns:xlink="http://www.w3.org/1999/xlink">
    <!-- Generator: Sketch 46 (44423) - http://www.bohemiancoding.com/sketch -->
    <title>组件－应用推送</title>
    <desc>Created with Sketch.</desc>
    <defs>
        <polygon id="path-1" points="16.0000941 0 32 0 32 32 16.0000941 32 0.000188235294 32 0.000188235294 0"></polygon>
        <polygon id="path-3" points="0 32 32 32 32 0 0 0"></polygon>
    </defs>
    <g id="Page-1" stroke="none" stroke-width="1" fill="none" fill-rule="evenodd">
        <g id="7新建营销流程" transform="translate(-105.000000, -561.000000)">
            <g id="组件" transform="translate(80.000000, 120.000000)">
                <g id="Group-10" transform="translate(1.000000, 49.000000)">
                    <g id="组件－应用推送" transform="translate(24.000000, 392.000000)">
                        <g id="Group-3">
                            <mask id="mask-2" fill="white">
                                <use xlink:href="#path-1"></use>
                            </mask>
                            <g id="Clip-2"></g>
                            <path d="M32.0001882,16 C32.0001882,24.8362353 24.8364235,32 16.0001882,32 C7.16348235,32 0.000188235294,24.8362353 0.000188235294,16 C0.000188235294,7.16376471 7.16348235,0 16.0001882,0 C24.8364235,0 32.0001882,7.16376471 32.0001882,16" id="Fill-1" fill="#EB5359" mask="url(#mask-2)"></path>
                        </g>
                        <mask id="mask-4" fill="white">
                            <use xlink:href="#path-3"></use>
                        </mask>
                        <g id="Clip-5"></g>
                        <polygon id="Fill-4" fill="#EB5359" mask="url(#mask-4)" points="5.66635294 19.2155294 15.576 19.2155294 15.576 13.1764706 5.66635294 13.1764706"></polygon>
                        <path d="M18.4312471,22.5266353 L15.6077176,22.5266353 C15.3488941,22.5266353 15.1371294,22.3148706 15.1371294,22.0560471 L15.1371294,21.9214588 C15.1371294,21.6626353 15.3488941,21.4508706 15.6077176,21.4508706 L18.4312471,21.4508706 C18.6905412,21.4508706 18.9018353,21.6626353 18.9018353,21.9214588 L18.9018353,22.0560471 C18.9018353,22.3148706 18.6905412,22.5266353 18.4312471,22.5266353" id="Fill-6" fill="#EB5359" mask="url(#mask-4)"></path>
                        <polygon id="Fill-7" fill="#FFFFFF" mask="url(#mask-4)" points="17.8430118 15.6401882 13.5780706 12.7352471 13.5780706 18.5451294"></polygon>
                        <path d="M14.6072471,16.392 L9.4896,16.392 C8.97007059,16.392 8.54842353,15.9703529 8.54842353,15.4508235 C8.54842353,14.9312941 8.97007059,14.5096471 9.4896,14.5096471 L14.6072471,14.5096471 C15.1267765,14.5096471 15.5484235,14.9312941 15.5484235,15.4508235 C15.5484235,15.9703529 15.1267765,16.392 14.6072471,16.392" id="Fill-8" fill="#FFFFFF" mask="url(#mask-4)"></path>
                        <path d="M18.1963765,22.7619294 L15.8434353,22.7619294 C15.5832,22.7619294 15.3728471,22.5515765 15.3728471,22.2913412 C15.3728471,22.0311059 15.5832,21.8207529 15.8434353,21.8207529 L18.1963765,21.8207529 C18.4566118,21.8207529 18.6669647,22.0311059 18.6669647,22.2913412 C18.6669647,22.5515765 18.4566118,22.7619294 18.1963765,22.7619294 M19.9907294,8.18781176 L13.7380235,8.18781176 C12.6984941,8.18781176 11.8556706,9.03063529 11.8556706,10.0701647 L11.8556706,11.9464 C11.8552,11.9558118 11.8533176,11.9647529 11.8533176,11.9741647 C11.8533176,12.4099294 12.2062588,12.7628706 12.6410824,12.7628706 C13.0763765,12.7628706 13.4293176,12.4099294 13.4293176,11.9741647 C13.4293176,11.9713412 13.4283765,11.9685176 13.4283765,11.9656941 L13.4307294,11.9656941 L13.4307294,10.6372235 C13.4307294,10.3774588 13.6415529,10.1666353 13.9013176,10.1666353 L19.8039059,10.1666353 C20.0641412,10.1666353 20.2744941,10.3774588 20.2744941,10.6372235 L20.2744941,20.4607529 C20.2744941,20.7205176 20.0641412,20.9313412 19.8039059,20.9313412 L13.9013176,20.9313412 C13.6415529,20.9313412 13.4307294,20.7205176 13.4307294,20.4607529 L13.4307294,19.1271059 L13.4170824,19.1271059 C13.3841412,18.7247529 13.0504941,18.4066353 12.6392,18.4066353 C12.2283765,18.4066353 11.8947294,18.7247529 11.8622588,19.1271059 L11.8556706,19.1271059 L11.8556706,21.9628706 C11.8556706,23.0024 12.6984941,23.8452235 13.7380235,23.8452235 L19.9907294,23.8452235 C21.0297882,23.8452235 21.8726118,23.0024 21.8726118,21.9628706 L21.8726118,10.0701647 C21.8726118,9.03063529 21.0297882,8.18781176 19.9907294,8.18781176" id="Fill-9" fill="#FFFFFF" mask="url(#mask-4)"></path>
                    </g>
                </g>
            </g>
        </g>
    </g>
</svg>