<?xml version="1.0" standalone="no"?><!DOCTYPE svg PUBLIC "-//W3C//DTD SVG 1.1//EN" "http://www.w3.org/Graphics/SVG/1.1/DTD/svg11.dtd"><svg t="1496806287661" class="icon" style="" viewBox="0 0 1024 1024" version="1.1" xmlns="http://www.w3.org/2000/svg" p-id="15767" xmlns:xlink="http://www.w3.org/1999/xlink" width="200" height="200"><defs><style type="text/css"></style></defs><path d="M960 192l-128 0 0 0-64 0L768 64c0-32-32-64-64-64L256 0C224 0 192 32 192 64l0 128L128 192l0 0L0 192l0 64 64 0 0 704c0 32 32 64 64 64l704 0c32 0 64-32 64-64L896 256l64 0L960 192zM256 64l448 0 0 128L256 192 256 64zM832 960 128 960 128 256l704 0L832 960z" p-id="15768" fill="#43a3fb"></path><path d="M256 384l64 0 0 448-64 0 0-448Z" p-id="15769" fill="#43a3fb"></path><path d="M448 384l64 0 0 448-64 0 0-448Z" p-id="15770" fill="#43a3fb"></path><path d="M640 384l64 0 0 448-64 0 0-448Z" p-id="15771" fill="#43a3fb"></path></svg>