<?xml version="1.0" encoding="UTF-8"?>
<svg width="18px" height="18px" viewBox="0 0 18 18" version="1.1" xmlns="http://www.w3.org/2000/svg" xmlns:xlink="http://www.w3.org/1999/xlink">
    <!-- Generator: Sketch 51.1 (57501) - http://www.bohemiancoding.com/sketch -->
    <title>icon－画像</title>
    <desc>Created with Sketch.</desc>
    <defs></defs>
    <g id="营销" stroke="none" stroke-width="1" fill="none" fill-rule="evenodd">
        <g id="21营销-营销流程-进行中" transform="translate(-889.000000, -393.000000)">
            <g id="流程" transform="translate(232.000000, 183.000000)">
                <g id="Group-12-Copy-2" transform="translate(654.000000, 207.000000)">
                    <g id="icon－画像" transform="translate(4.000000, 4.000000)">
                        <circle id="Oval" stroke="#464C5B" cx="8" cy="8" r="8"></circle>
                        <path d="M3.03718895,10.4381 C2.53217566,10.9431133 2.70445324,11.8027104 3.36813383,12.0663202 C4.60416282,12.5577232 6.43725363,13.1766331 7.82729377,13.1766331 C9.21160326,13.1766331 11.0074449,12.5623793 12.2205513,12.0720508 C12.8799339,11.8055757 13.0486298,10.948844 12.5457655,10.4459797 C9.92542702,7.82528301 5.64964779,7.82528301 3.03718895,10.4381 Z" id="Fill-4" fill="#464C5B"></path>
                        <path d="M7.89713396,7.42211116 C6.62027411,7.42211116 5.58481777,6.38665482 5.58481777,5.10979497 C5.58481777,3.83257695 6.62027411,2.79747878 7.89713396,2.79747878 C9.17399382,2.79747878 10.2094502,3.83257695 10.2094502,5.10979497 C10.2094502,6.38665482 9.17399382,7.42211116 7.89713396,7.42211116 Z" id="Fill-6" fill="#464C5B"></path>
                    </g>
                </g>
            </g>
        </g>
    </g>
</svg>