<?xml version="1.0" encoding="UTF-8" standalone="no"?>
<svg width="24px" height="24px" viewBox="0 0 24 24" version="1.1" xmlns="http://www.w3.org/2000/svg" xmlns:xlink="http://www.w3.org/1999/xlink">
    <!-- Generator: Sketch 46 (44423) - http://www.bohemiancoding.com/sketch -->
    <title>icon－测试</title>
    <desc>Created with Sketch.</desc>
    <defs></defs>
    <g id="Page-1" stroke="none" stroke-width="1" fill="none" fill-rule="evenodd">
        <g id="7新建营销流程" transform="translate(-180.000000, -136.000000)" fill="#43A3FB">
            <path d="M191.99997,136 C185.37244,136 180,141.37106 180,148.00087 C180,154.63044 185.37412,160 191.99997,160 C198.626,160 204.00006,154.62714 204.00006,147.99913 C204.00006,141.37106 198.62762,136 191.99997,136 Z M191.99997,158.392768 C186.269147,158.392768 181.606992,153.731933 181.606992,147.99763 C181.606992,142.263027 186.269027,137.603932 191.99997,137.603932 C197.730853,137.603932 202.392888,142.268067 202.392888,147.99763 C202.392888,153.727193 197.732353,158.392768 191.99997,158.392768 Z M196.035136,148.552235 C196.048167,148.540507 196.060573,148.528102 196.072301,148.515071 C196.25703,148.309816 196.240391,147.993671 196.035136,147.808941 L190.834482,143.128353 C190.74267,143.045722 190.623521,143 190.5,143 C190.223858,143 190,143.223858 190,143.5 L190,152.861176 C190,152.984697 190.045722,153.103846 190.128353,153.195659 C190.313082,153.400914 190.629227,153.417553 190.834482,153.232823 L196.035136,148.552235 Z" id="icon－测试"></path>
        </g>
    </g>
</svg>