<?xml version="1.0" encoding="UTF-8" standalone="no"?>
<svg width="16px" height="16px" viewBox="0 0 16 16" version="1.1" xmlns="http://www.w3.org/2000/svg" xmlns:xlink="http://www.w3.org/1999/xlink">
    <!-- Generator: Sketch 46 (44423) - http://www.bohemiancoding.com/sketch -->
    <title>icon－info</title>
    <desc>Created with Sketch.</desc>
    <defs></defs>
    <g id="Page-1" stroke="none" stroke-width="1" fill="none" fill-rule="evenodd">
        <g id="13Push活动推广通知" transform="translate(-1402.000000, -492.000000)" fill="#BDC5D5">
            <g id="右侧" transform="translate(1054.000000, 120.000000)">
                <g id="消息标题" transform="translate(25.000000, 372.000000)">
                    <g id="icon－info" transform="translate(323.000000, 0.000000)">
                        <path d="M8.10331605,0.000643713733 L8.20635977,0.00262437137 L8.30905687,0.00584294004 L8.41140735,0.0103984526 L8.51346074,0.0162413926 L8.6151675,0.0233222437 L8.71647814,0.0316905222 L8.81749168,0.0413462282 L8.91810909,0.0521903288 L9.01833037,0.0643218569 L9.11815551,0.0776912959 L9.21763404,0.0922491296 L9.31671644,0.108044874 L9.41535319,0.125029014 L9.51359381,0.143251064 L9.6114383,0.162661509 L9.70883714,0.183210832 L9.80579033,0.204998066 L9.90229787,0.227924178 L9.99835977,0.252038685 L10.0939265,0.27729207 L10.1890476,0.303684333 L10.283723,0.331215474 L10.3778538,0.35993501 L10.4715389,0.389694391 L10.5646793,0.420642166 L10.6573741,0.452629787 L10.7494747,0.485756286 L10.8410801,0.519972147 L10.9321903,0.555277369 L11.0227064,0.591622437 L11.1127273,0.629106383 L11.202154,0.667580658 L11.291036,0.707144294 L11.3793238,0.747747776 L11.4670669,0.789391103 L11.5541663,0.832074275 L11.6407211,0.875747776 L11.7266321,0.920461122 L11.8119489,0.966164797 L11.8966716,1.0128588 L11.9807505,1.06054313 L12.0641857,1.10921779 L12.1469772,1.15888279 L12.229125,1.20948859 L12.310629,1.2610352 L12.3914398,1.31357215 L12.471607,1.3670499 L12.5510313,1.42146847 L12.629812,1.47677834 L12.7078994,1.53302901 L12.7852441,1.59017099 L12.8618956,1.64825377 L12.9378538,1.70717834 L13.0130692,1.76704371 L13.087542,1.82775087 L13.1612224,1.88934932 L13.2342097,1.95178956 L13.3064046,2.01512108 L13.3778569,2.07929439 L13.4485168,2.14430948 L13.5183845,2.21011683 L13.58746,2.27676596 L13.6557431,2.34425687 L13.723234,2.41254004 L13.7898832,2.48161547 L13.8556905,2.55148317 L13.9207056,2.62214313 L13.9848789,2.69359536 L14.0482104,2.76579033 L14.1106507,2.83877756 L14.1722491,2.91245803 L14.2329563,2.98693075 L14.2928217,3.06214623 L14.3517462,3.13810445 L14.409829,3.2147559 L14.466971,3.29210058 L14.5232217,3.37018801 L14.5785315,3.44896867 L14.6329501,3.52839304 L14.6864279,3.60856015 L14.7389648,3.68937099 L14.7905114,3.77087505 L14.8411172,3.85302282 L14.8907822,3.93581431 L14.9394569,4.01924952 L14.9871412,4.10332843 L15.0338352,4.18805106 L15.0795389,4.27336789 L15.1242522,4.35927892 L15.1679257,4.44583366 L15.2106089,4.53293308 L15.2522522,4.62067621 L15.2928557,4.70896402 L15.3324193,4.79784603 L15.3708936,4.88727273 L15.4083776,4.97729362 L15.4447226,5.06780967 L15.4800279,5.15891992 L15.5142437,5.25052534 L15.5473702,5.34262592 L15.5793578,5.4353207 L15.6103056,5.52846112 L15.640065,5.62214623 L15.6687845,5.71627698 L15.6963157,5.81095242 L15.7227079,5.9060735 L15.7479613,6.00164023 L15.7720758,6.09770213 L15.7950019,6.19420967 L15.8167892,6.29116286 L15.8373385,6.3885617 L15.8567489,6.48640619 L15.874971,6.58464681 L15.8919551,6.68328356 L15.9077509,6.78236596 L15.9223087,6.88184449 L15.9356781,6.98166963 L15.9478097,7.08189091 L15.9586538,7.18250832 L15.9683095,7.28352186 L15.9766778,7.3848325 L15.9837586,7.48653926 L15.9896015,7.58859265 L15.9941571,7.69094313 L15.9973756,7.79364023 L15.9993563,7.89668395 L16,7.99997524 L15.9993563,8.10331605 L15.9973756,8.20635977 L15.9941571,8.30905687 L15.9896015,8.41140735 L15.9837586,8.51346074 L15.9766778,8.61511799 L15.9683095,8.71647814 L15.9586538,8.81744217 L15.9478097,8.91805957 L15.9356781,9.01833037 L15.9223087,9.11815551 L15.9077509,9.21763404 L15.8919551,9.31671644 L15.874971,9.41535319 L15.8567489,9.51359381 L15.8373385,9.6114383 L15.8167892,9.70883714 L15.7950019,9.80579033 L15.7720758,9.90229787 L15.7479613,9.99831025 L15.7227079,10.0939265 L15.6963157,10.1890476 L15.6687845,10.2836735 L15.640065,10.3778538 L15.6103056,10.4715389 L15.5793578,10.5646793 L15.5473702,10.6573246 L15.5142437,10.7494747 L15.4800279,10.8410801 L15.4447226,10.9321903 L15.4083776,11.0227064 L15.3708936,11.1127273 L15.3324193,11.202154 L15.2928557,11.291036 L15.2522522,11.3793238 L15.2106089,11.4670174 L15.1679257,11.5541663 L15.1242522,11.6407211 L15.0795389,11.7266321 L15.0338352,11.8119489 L14.9871412,11.8966716 L14.9394569,11.9807505 L14.8907822,12.0641857 L14.8411172,12.1469772 L14.7905114,12.229125 L14.7389648,12.3105795 L14.6864279,12.3914398 L14.6329501,12.4715574 L14.5785315,12.5510313 L14.5232217,12.629812 L14.466971,12.7078994 L14.409829,12.7852441 L14.3517462,12.8618956 L14.2928217,12.9378538 L14.2329563,13.0130197 L14.1722491,13.0874925 L14.1106507,13.1612224 L14.0482104,13.2342097 L13.9848789,13.3064046 L13.9207056,13.3778569 L13.8556905,13.4485168 L13.7898832,13.5183845 L13.723234,13.58746 L13.6557431,13.6557431 L13.58746,13.723234 L13.5183845,13.7898832 L13.4485168,13.8556905 L13.3778569,13.9207056 L13.3064046,13.9848789 L13.2342097,14.0481609 L13.1612224,14.1106507 L13.087542,14.1722491 L13.0130692,14.2329563 L12.9378538,14.2927721 L12.8618956,14.3517462 L12.7852441,14.409829 L12.7078994,14.466971 L12.629812,14.5232217 L12.5510313,14.5785315 L12.471607,14.6329501 L12.3914398,14.6864279 L12.310629,14.7389153 L12.229125,14.7905114 L12.1469772,14.8411172 L12.0641857,14.8907822 L11.9807505,14.9394569 L11.8966716,14.9871412 L11.8119489,15.0338352 L11.7266321,15.0795389 L11.6407211,15.1242522 L11.5541663,15.1679257 L11.4670669,15.2106089 L11.3793238,15.2522522 L11.291036,15.2928557 L11.202154,15.3324193 L11.1127273,15.3708936 L11.0227064,15.408328 L10.9321903,15.4447226 L10.8410801,15.4800279 L10.7494747,15.5142437 L10.6573741,15.5473207 L10.5646793,15.5793578 L10.4715389,15.6102561 L10.3778538,15.640065 L10.283723,15.668735 L10.1890476,15.6963157 L10.0939265,15.7227079 L9.99835977,15.7479613 L9.90229787,15.7720263 L9.80579033,15.7950019 L9.70883714,15.8167397 L9.6114383,15.8373385 L9.51359381,15.8567489 L9.41535319,15.874971 L9.31671644,15.8919551 L9.21763404,15.9077509 L9.11815551,15.9223087 L9.01833037,15.9356781 L8.91810909,15.9477602 L8.81749168,15.9586538 L8.71647814,15.96826 L8.6151675,15.9766282 L8.51346074,15.9837586 L8.41140735,15.989552 L8.30905687,15.9941075 L8.20635977,15.9973756 L8.10331605,15.9993563 L8.00002476,16 L7.89668395,15.9993563 L7.79364023,15.9973756 L7.69094313,15.9941075 L7.58859265,15.989552 L7.48653926,15.9837586 L7.38488201,15.9766282 L7.28352186,15.96826 L7.18255783,15.9586538 L7.08194043,15.9477602 L6.98166963,15.9356781 L6.88184449,15.9223087 L6.78236596,15.9077509 L6.68328356,15.8919551 L6.58464681,15.874971 L6.48640619,15.8567489 L6.3885617,15.8373385 L6.29116286,15.8167397 L6.19420967,15.7950019 L6.09770213,15.7720263 L6.00168975,15.7479613 L5.9060735,15.7227079 L5.81095242,15.6963157 L5.7163265,15.668735 L5.62214623,15.640065 L5.52846112,15.6102561 L5.4353207,15.5793578 L5.34267544,15.5473207 L5.25052534,15.5142437 L5.15891992,15.4800279 L5.06780967,15.4447226 L4.97729362,15.408328 L4.88727273,15.3708936 L4.79784603,15.3324193 L4.70896402,15.2928557 L4.62067621,15.2522522 L4.53298259,15.2106089 L4.44583366,15.1679257 L4.35927892,15.1242522 L4.27336789,15.0795389 L4.18805106,15.0338352 L4.10332843,14.9871412 L4.01924952,14.9394569 L3.93581431,14.8907822 L3.85302282,14.8411172 L3.77087505,14.7905114 L3.6894205,14.7389153 L3.60856015,14.6864279 L3.52844255,14.6329501 L3.44896867,14.5785315 L3.37018801,14.5232217 L3.29210058,14.466971 L3.2147559,14.409829 L3.13810445,14.3517462 L3.06214623,14.2927721 L2.98698027,14.2329563 L2.91250754,14.1722491 L2.83877756,14.1106507 L2.76579033,14.0481609 L2.69359536,13.9848789 L2.62214313,13.9207056 L2.55148317,13.8556905 L2.48161547,13.7898832 L2.41254004,13.723234 L2.34425687,13.6557431 L2.27676596,13.58746 L2.21011683,13.5183845 L2.14430948,13.4485168 L2.07929439,13.3778569 L2.01512108,13.3064046 L1.95183907,13.2342097 L1.88934932,13.1612224 L1.82775087,13.0874925 L1.76704371,13.0130197 L1.70722785,12.9378538 L1.64825377,12.8618956 L1.59017099,12.7852441 L1.53302901,12.7078994 L1.47677834,12.629812 L1.42146847,12.5510313 L1.3670499,12.4715574 L1.31357215,12.3914398 L1.26108472,12.3105795 L1.20948859,12.229125 L1.15888279,12.1469772 L1.10921779,12.0641857 L1.06054313,11.9807505 L1.0128588,11.8966716 L0.966164797,11.8119489 L0.920461122,11.7266321 L0.875747776,11.6407211 L0.832074275,11.5541663 L0.789391103,11.4670174 L0.747747776,11.3793238 L0.707144294,11.291036 L0.667580658,11.202154 L0.629106383,11.1127273 L0.591671954,11.0227064 L0.555277369,10.9321903 L0.519972147,10.8410801 L0.485756286,10.7494747 L0.452679304,10.6573246 L0.420642166,10.5646793 L0.389743907,10.4715389 L0.35993501,10.3778538 L0.33126499,10.2836735 L0.303684333,10.1890476 L0.27729207,10.0939265 L0.252038685,9.99831025 L0.227973694,9.90229787 L0.204998066,9.80579033 L0.183260348,9.70883714 L0.162661509,9.6114383 L0.143251064,9.51359381 L0.125029014,9.41535319 L0.108044874,9.31671644 L0.0922491296,9.21763404 L0.0776912959,9.11815551 L0.0643218569,9.01833037 L0.0522398453,8.91805957 L0.0413462282,8.81744217 L0.0317400387,8.71647814 L0.0233717602,8.61511799 L0.0162413926,8.51346074 L0.0104479691,8.41140735 L0.00589245648,8.30905687 L0.00262437137,8.20635977 L0.000643713733,8.10331605 L-6.66133815e-14,7.99997524 L0.000643713733,7.89668395 L0.00262437137,7.79364023 L0.00589245648,7.69094313 L0.0104479691,7.58859265 L0.0162413926,7.48653926 L0.0233717602,7.3848325 L0.0317400387,7.28352186 L0.0413462282,7.18250832 L0.0522398453,7.08189091 L0.0643218569,6.98166963 L0.0776912959,6.88184449 L0.0922491296,6.78236596 L0.108044874,6.68328356 L0.125029014,6.58464681 L0.143251064,6.48640619 L0.162661509,6.3885617 L0.183260348,6.29116286 L0.204998066,6.19420967 L0.227973694,6.09770213 L0.252038685,6.00164023 L0.27729207,5.9060735 L0.303684333,5.81095242 L0.33126499,5.71627698 L0.35993501,5.62214623 L0.389743907,5.52846112 L0.420642166,5.4353207 L0.452679304,5.34262592 L0.485756286,5.25052534 L0.519972147,5.15891992 L0.555277369,5.06780967 L0.591671954,4.97729362 L0.629106383,4.88727273 L0.667580658,4.79784603 L0.707144294,4.70896402 L0.747747776,4.62067621 L0.789391103,4.53293308 L0.832074275,4.44583366 L0.875747776,4.35927892 L0.920461122,4.27336789 L0.966164797,4.18805106 L1.0128588,4.10332843 L1.06054313,4.01924952 L1.10921779,3.93581431 L1.15888279,3.85302282 L1.20948859,3.77087505 L1.26108472,3.68937099 L1.31357215,3.60856015 L1.3670499,3.52839304 L1.42146847,3.44896867 L1.47677834,3.37018801 L1.53302901,3.29210058 L1.59017099,3.2147559 L1.64825377,3.13810445 L1.70722785,3.06214623 L1.76704371,2.98693075 L1.82775087,2.91245803 L1.88934932,2.83877756 L1.95183907,2.76579033 L2.01512108,2.69359536 L2.07929439,2.62214313 L2.14430948,2.55148317 L2.21011683,2.48161547 L2.27676596,2.41254004 L2.34425687,2.34425687 L2.41254004,2.27676596 L2.48161547,2.21011683 L2.55148317,2.14430948 L2.62214313,2.07929439 L2.69359536,2.01512108 L2.76579033,1.95178956 L2.83877756,1.88934932 L2.91250754,1.82775087 L2.98698027,1.76704371 L3.06214623,1.70717834 L3.13810445,1.64825377 L3.2147559,1.59017099 L3.29210058,1.53302901 L3.37018801,1.47677834 L3.44896867,1.42146847 L3.52844255,1.3670499 L3.60856015,1.31357215 L3.6894205,1.2610352 L3.77087505,1.20948859 L3.85302282,1.15888279 L3.93581431,1.10921779 L4.01924952,1.06054313 L4.10332843,1.0128588 L4.18805106,0.966164797 L4.27336789,0.920461122 L4.35927892,0.875747776 L4.44583366,0.832074275 L4.53298259,0.789391103 L4.62067621,0.747747776 L4.70896402,0.707144294 L4.79784603,0.667580658 L4.88727273,0.629106383 L4.97729362,0.591622437 L5.06780967,0.555277369 L5.15891992,0.519972147 L5.25052534,0.485756286 L5.34267544,0.452629787 L5.4353207,0.420642166 L5.52846112,0.389694391 L5.62214623,0.35993501 L5.7163265,0.331215474 L5.81095242,0.303684333 L5.9060735,0.27729207 L6.00168975,0.252038685 L6.09770213,0.227924178 L6.19420967,0.204998066 L6.29116286,0.183210832 L6.3885617,0.162661509 L6.48640619,0.143251064 L6.58464681,0.125029014 L6.68328356,0.108044874 L6.78236596,0.0922491296 L6.88184449,0.0776912959 L6.98166963,0.0643218569 L7.08194043,0.0521903288 L7.18255783,0.0413462282 L7.28352186,0.0316905222 L7.38488201,0.0233222437 L7.48653926,0.0162413926 L7.58859265,0.0103984526 L7.69094313,0.00584294004 L7.79364023,0.00262437137 L7.89668395,0.000643713733 L8.00002476,4.97379915e-14 L8.10331605,0.000643713733 Z M7.91540116,1.48603791 L7.99997524,1.48554275 L8.08464836,1.48603791 L8.16882631,1.48767195 L8.25260812,1.49029632 L8.33594429,1.49401006 L8.41918143,1.49876364 L8.50241857,1.50460658 L8.58516054,1.51139033 L8.66715977,1.51921393 L8.74910948,1.52807737 L8.83091064,1.53798066 L8.91187002,1.54877524 L8.99277988,1.56065919 L9.0735412,1.57353346 L9.15390638,1.58739807 L9.23382592,1.60220348 L9.31339884,1.61794971 L9.3924766,1.63468627 L9.47125725,1.65236364 L9.54974081,1.67103133 L9.62802631,1.69068936 L9.70561857,1.71118917 L9.78271567,1.73258027 L9.85986228,1.75501122 L9.93661277,1.77838298 L10.012472,1.80249749 L10.0879845,1.8275528 L10.1634476,1.85364797 L10.238465,1.88063443 L10.3128882,1.90841315 L10.3868658,1.93708317 L10.4604967,1.96664449 L10.5336325,1.9970971 L10.6064712,2.02844101 L10.6788642,2.06067621 L10.7504155,2.09355513 L10.8217687,2.12747389 L10.8928743,2.16228395 L10.9632867,2.19778723 L11.0330058,2.23408279 L11.1025764,2.27131915 L11.1716023,2.30939729 L11.240034,2.34821818 L11.3079211,2.38783133 L11.375313,2.42823675 L11.4424573,2.4696325 L11.5089083,2.51162244 L11.5742205,2.55405803 L11.6395822,2.59773153 L11.7049439,2.64244487 L11.7687211,2.68720774 L11.8322012,2.73301044 L11.8955822,2.77975397 L11.9578244,2.82694313 L12.0197199,2.8750236 L12.0813679,2.92404487 L12.1420255,2.9735118 L12.2016928,3.02337485 L12.2616573,3.0747234 L12.3205323,3.12631954 L12.3781199,3.17806422 L12.4362522,3.23159149 L12.4935923,3.28556441 L12.5496944,3.33968588 L12.6055489,3.3948472 L12.6603636,3.45025609 L12.7146337,3.5066058 L12.7687056,3.56394584 L12.8212426,3.62108781 L12.8734824,3.67926963 L12.9255737,3.73873888 L12.9766747,3.79835667 L13.0264882,3.85797447 L13.0757571,3.91843404 L13.1249764,3.98032959 L13.1732549,4.04242321 L13.2201965,4.10441779 L13.2669896,4.16779884 L13.3128418,4.23137795 L13.3577037,4.29525416 L13.402318,4.36041779 L13.4456944,4.42543288 L13.4885756,4.4914383 L13.5306646,4.55788936 L13.5715157,4.62424139 L13.6120696,4.69188085 L13.6519304,4.76026306 L13.6907017,4.82854623 L13.7285818,4.89727505 L13.7657687,4.9666971 L13.8023118,5.03696093 L13.8379636,5.10757137 L13.8725261,5.17808279 L13.9062963,5.24928743 L13.9392248,5.32083868 L13.9713609,5.39323172 L14.0030019,5.46671412 L14.0335536,5.53999845 L14.0629663,5.61323327 L14.0916364,5.68706228 L14.1193656,5.76138646 L14.146253,5.83625532 L14.1722986,5.91166886 L14.1974035,5.98742901 L14.2217161,6.06383288 L14.2449888,6.14013772 L14.2672712,6.2168882 L14.2889099,6.29477756 L14.3094592,6.37246886 L14.3289191,6.44996209 L14.3475868,6.52864371 L14.3653632,6.6078205 L14.3820503,6.68670019 L14.397846,6.7662236 L14.4126515,6.8460441 L14.4264665,6.92640928 L14.4393408,7.00726963 L14.4511752,7.08778337 L14.4619698,7.16874275 L14.4718731,7.25094004 L14.4807861,7.33279072 L14.4886097,7.41513656 L14.4954429,7.49792805 L14.5011868,7.58047195 L14.5059404,7.66405571 L14.5097037,7.74744139 L14.512328,7.83122321 L14.5139621,7.91540116 L14.5144573,8.00002476 L14.5139621,8.08459884 L14.512328,8.16882631 L14.5097037,8.25255861 L14.5059404,8.33589478 L14.5011868,8.41957756 L14.4954429,8.50202244 L14.4886097,8.58481393 L14.4807861,8.66715977 L14.4718731,8.74905996 L14.4619698,8.83120774 L14.4511752,8.91221663 L14.4393408,8.99277988 L14.4264665,9.07364023 L14.4126515,9.15390638 L14.397846,9.2337764 L14.3820998,9.31320077 L14.3653632,9.3921795 L14.3475868,9.47130677 L14.3289191,9.54998839 L14.3094592,9.62753114 L14.2888603,9.70527195 L14.2672712,9.78321083 L14.2449888,9.85986228 L14.2217656,9.93606809 L14.1974035,10.0125215 L14.1722491,10.0884797 L14.1463025,10.1636456 L14.1193656,10.238564 L14.0916364,10.3129377 L14.0630654,10.3866182 L14.0335536,10.4600015 L14.0029524,10.5333849 L13.9713609,10.6067683 L13.9392743,10.6789632 L13.9062468,10.7508116 L13.8725261,10.8219172 L13.8379636,10.8924286 L13.8022128,10.9631876 L13.7658677,11.0331544 L13.7286809,11.1025269 L13.6906027,11.1715528 L13.6519304,11.2397369 L13.6121687,11.3079211 L13.5715157,11.3757091 L13.5305656,11.4422097 L13.4885756,11.5085617 L13.4458429,11.5743195 L13.4021694,11.6397308 L13.3577037,11.7047458 L13.3129903,11.768424 L13.266841,11.8323497 L13.2201965,11.8956317 L13.1732549,11.9575273 L13.1248279,12.0198685 L13.0759056,12.0813679 L13.0266863,12.1417779 L12.9765261,12.2017919 L12.9254251,12.2614592 L12.8734824,12.3207304 L12.8212426,12.3789122 L12.7688542,12.4358561 L12.7147822,12.4931961 L12.6601656,12.5498925 L12.6055489,12.6051528 L12.5498925,12.6601161 L12.4933942,12.7145841 L12.4360542,12.7686066 L12.3783675,12.8217377 L12.3207799,12.8734824 L12.2614592,12.9254251 L12.2016928,12.9766251 L12.1420255,13.0264387 L12.0811203,13.0761532 L12.0197199,13.1250259 L11.958072,13.1728588 L11.8958298,13.2199985 L11.8322012,13.2669896 L11.7684735,13.3129408 L11.7046468,13.3577532 L11.6398298,13.4021199 L11.5744681,13.4456944 L11.5086607,13.4884766 L11.4424573,13.530417 L11.3756101,13.5715652 L11.307624,13.6123172 L11.2397865,13.6519304 L11.1716023,13.6906027 L11.1025764,13.7286809 L11.0330058,13.7659172 L10.9632867,13.8022128 L10.8928743,13.8377161 L10.8217687,13.8725756 L10.7504155,13.9064449 L10.6788642,13.9393733 L10.6064712,13.971559 L10.5336325,14.0029524 L10.4608433,14.033207 L10.3872124,14.0627683 L10.3128882,14.0915373 L10.2381184,14.1194646 L10.1634476,14.146352 L10.0883311,14.1722986 L10.012472,14.197453 L9.93626615,14.2216665 L9.85951567,14.2450878 L9.78271567,14.2674692 L9.70561857,14.2888603 L9.62802631,14.3093602 L9.54974081,14.3289687 L9.47125725,14.3476364 L9.3924766,14.3653137 L9.31339884,14.3820503 L9.23382592,14.3977965 L9.15390638,14.4126019 L9.0735412,14.4264665 L8.9931265,14.4392913 L8.91221663,14.4511257 L8.83056402,14.4620689 L8.74910948,14.4719226 L8.6675559,14.4807366 L8.58481393,14.4885602 L8.50207195,14.4954429 L8.41957756,14.5011868 L8.33634043,14.5059404 L8.25260812,14.5096542 L8.16843017,14.512328 L8.08425222,14.5139621 L7.99997524,14.5145068 L7.91574778,14.5139621 L7.83156983,14.512328 L7.74744139,14.5096542 L7.66370909,14.5059404 L7.58047195,14.5011868 L7.49797756,14.4954429 L7.41523559,14.4885602 L7.33249362,14.4807366 L7.25094004,14.4719226 L7.16948549,14.4620689 L7.08783288,14.4511257 L7.00677447,14.4392913 L6.92640928,14.4264665 L6.84609362,14.4126019 L6.76612456,14.3977965 L6.68679923,14.3820998 L6.6075234,14.3653137 L6.52879226,14.3476364 L6.4503087,14.3289687 L6.37202321,14.3093602 L6.29443095,14.2888603 L6.21713578,14.2673702 L6.14043482,14.2450878 L6.06398143,14.2217656 L5.98757756,14.197453 L5.91171838,14.1722986 L5.83660193,14.146352 L5.76168356,14.1193656 L5.68706228,14.0915373 L5.61308472,14.0628673 L5.53920619,14.033207 L5.46641702,14.0029524 L5.39357834,13.971559 L5.3211853,13.9393733 L5.24958453,13.9064449 L5.17828085,13.8725756 L5.10712573,13.8377161 L5.03676286,13.8022128 L4.9669942,13.7659172 L4.89747311,13.7286809 L4.8284472,13.6906027 L4.76026306,13.6519304 L4.69237602,13.6123172 L4.62443946,13.5715652 L4.55759226,13.530417 L4.49138878,13.4884766 L4.42553191,13.4456944 L4.36021973,13.4021199 L4.29535319,13.3577532 L4.23157602,13.3129408 L4.16784836,13.2669896 L4.10421973,13.2199985 L4.04192805,13.1728588 L3.98032959,13.1250259 L3.91892921,13.0761532 L3.85797447,13.0264387 L3.79796054,12.976328 L3.7384913,12.9254251 L3.67966576,12.873829 L3.62128588,12.8213911 L3.56389632,12.7686066 L3.50700193,12.7149803 L3.45015706,12.6601161 L3.39450058,12.6051528 L3.33988395,12.5498925 L3.28521779,12.4931961 L3.23114584,12.4358561 L3.17875745,12.3789122 L3.12656712,12.3207304 L3.07462437,12.2614592 L3.0235234,12.2017919 L2.97336325,12.1417779 L2.92374778,12.0809222 L2.87512263,12.0198685 L2.8271412,11.9580224 L2.779853,11.8956317 L2.73315899,11.8323497 L2.68705919,11.768424 L2.64234584,11.7047458 L2.59783056,11.6397308 L2.55420658,11.5743195 L2.51147389,11.5085617 L2.46948395,11.4422097 L2.42848433,11.3757091 L2.38788085,11.3079211 L2.34806963,11.2397369 L2.30939729,11.1715528 L2.27136867,11.1025269 L2.23418182,11.0331544 L2.19778723,10.9631876 L2.16203636,10.8924286 L2.12747389,10.8219172 L2.09380271,10.7508116 L2.06047814,10.6783195 L2.02829246,10.6061246 L1.99724565,10.5340286 L1.96674352,10.4606453 L1.93698414,10.3866182 L1.90841315,10.3129377 L1.88068395,10.238564 L1.853747,10.1636456 L1.82780039,10.0884797 L1.80259652,10.0125215 L1.77828395,9.93606809 L1.75481315,9.85916905 L1.73248124,9.7825176 L1.71123868,9.7060147 L1.69073888,9.62822437 L1.6709323,9.54929516 L1.65236364,9.47130677 L1.6347853,9.39287273 L1.61794971,9.31320077 L1.60220348,9.2337764 L1.58739807,9.15390638 L1.57358298,9.07364023 L1.56065919,8.99277988 L1.54882476,8.91221663 L1.53807969,8.83120774 L1.52812689,8.74905996 L1.51926344,8.66715977 L1.51143985,8.58481393 L1.50455706,8.50202244 L1.49881315,8.41957756 L1.49405957,8.33589478 L1.49029632,8.25255861 L1.48772147,8.16882631 L1.48603791,8.08385609 L1.48549323,8.00002476 L1.48603791,7.91609439 L1.48772147,7.83122321 L1.49029632,7.74744139 L1.49405957,7.66405571 L1.49881315,7.58047195 L1.50455706,7.49792805 L1.51143985,7.41513656 L1.51926344,7.33279072 L1.52812689,7.25094004 L1.53807969,7.16874275 L1.54882476,7.08778337 L1.56065919,7.00726963 L1.57358298,6.92640928 L1.58739807,6.8460441 L1.60220348,6.7662236 L1.61794971,6.68670019 L1.6347853,6.60707776 L1.65236364,6.52864371 L1.6709323,6.45070484 L1.69073888,6.37172611 L1.71123868,6.29408433 L1.73243172,6.21758143 L1.75481315,6.14083095 L1.77828395,6.06383288 L1.80259652,5.98742901 L1.82775087,5.91166886 L1.85379652,5.83625532 L1.88068395,5.76138646 L1.90841315,5.68706228 L1.93703366,5.61323327 L1.96674352,5.53930522 L1.99719613,5.46607041 L2.02829246,5.39387544 L2.06052766,5.3214824 L2.09370368,5.24928743 L2.12747389,5.17808279 L2.16203636,5.10757137 L2.19773772,5.03696093 L2.23428085,4.9666971 L2.27141818,4.89727505 L2.30929826,4.82854623 L2.34806963,4.76026306 L2.38797988,4.69188085 L2.42848433,4.62424139 L2.4693354,4.55788936 L2.51147389,4.4914383 L2.55430561,4.42543288 L2.59773153,4.36041779 L2.64234584,4.29525416 L2.68715822,4.23137795 L2.73305996,4.16779884 L2.779853,4.10441779 L2.8271412,4.04192805 L2.87497408,3.98032959 L2.92389632,3.91892921 L2.9735118,3.85797447 L3.02332534,3.79835667 L3.07442631,3.73873888 L3.12656712,3.67926963 L3.17875745,3.62108781 L3.23134391,3.56394584 L3.28541586,3.5066058 L3.33968588,3.45025609 L3.39450058,3.3948472 L3.45035513,3.33968588 L3.50680387,3.28521779 L3.56369826,3.23159149 L3.62148395,3.17841083 L3.67986383,3.12597292 L3.73829323,3.0747234 L3.79796054,3.02367195 L3.85797447,2.9735118 L3.91868162,2.92404487 L3.98032959,2.8750236 L4.04217563,2.82694313 L4.10446731,2.77975397 L4.16784836,2.73301044 L4.23132843,2.68720774 L4.29510561,2.64244487 L4.36046731,2.59773153 L4.42582901,2.55405803 L4.49109168,2.51162244 L4.55759226,2.4696325 L4.62468704,2.42823675 L4.69212843,2.38783133 L4.75996596,2.34821818 L4.8284472,2.30939729 L4.89747311,2.27131915 L4.9669942,2.23408279 L5.03676286,2.19778723 L5.10712573,2.16228395 L5.17828085,2.12747389 L5.24958453,2.09355513 L5.3211853,2.06067621 L5.39357834,2.02844101 L5.46641702,1.9970971 L5.5395528,1.96664449 L5.61338182,1.93698414 L5.68706228,1.90841315 L5.76133694,1.88068395 L5.83660193,1.85364797 L5.91206499,1.8275528 L5.98757756,1.80249749 L6.06363482,1.77833346 L6.1400882,1.75501122 L6.21713578,1.73262979 L6.29443095,1.71118917 L6.37202321,1.69068936 L6.4503087,1.67103133 L6.52879226,1.65236364 L6.6075234,1.63468627 L6.68679923,1.61794971 L6.76612456,1.60220348 L6.84609362,1.58739807 L6.92640928,1.57353346 L7.0071706,1.56065919 L7.0881795,1.54877524 L7.16908936,1.53798066 L7.25094004,1.52807737 L7.33284023,1.51921393 L7.41488897,1.51139033 L7.49763095,1.50460658 L7.58081857,1.49876364 L7.66405571,1.49401006 L7.74744139,1.49029632 L7.83122321,1.48767195 L7.91540116,1.48603791 Z M8.00002476,12.6255536 C8.41923095,12.6255536 8.75876518,12.2872077 8.75876518,11.8699822 C8.75876518,11.4525586 8.41923095,11.1144108 8.00002476,11.1144108 C7.58096712,11.1144108 7.24143288,11.4525586 7.24143288,11.8699822 C7.24143288,12.2872077 7.58096712,12.6255536 8.00002476,12.6255536 Z M8.00002476,3.79122631 C6.57187157,3.79122631 5.05384603,4.82463443 5.05384603,6.7406236 C5.05384603,7.14537099 5.3838236,7.47396209 5.79040309,7.47396209 C6.19693308,7.47396209 6.52691064,7.14537099 6.52691064,6.7406236 C6.52691064,5.72167427 7.29080077,5.25815087 8.00002476,5.25815087 C8.55030097,5.25815087 9.47313888,5.41883172 9.47313888,6.49616093 C9.47313888,6.87778414 9.37227389,7.32363017 8.62759613,7.73303211 C8.12084487,8.01022515 7.26351721,8.72836209 7.26351721,9.65912263 C7.26351721,10.0640681 7.59354429,10.3926097 8.00002476,10.3926097 C8.40665377,10.3926097 8.73663133,10.0640681 8.73663133,9.65912263 C8.73663133,9.52270484 9.02828317,9.18742901 9.33761238,9.01798375 C10.4048402,8.43349168 10.946352,7.58413617 10.946352,6.49616093 C10.946352,4.62731141 9.46655319,3.79122631 8.00002476,3.79122631 Z"></path>
                    </g>
                </g>
            </g>
        </g>
    </g>
</svg>