<?xml version="1.0" encoding="UTF-8" standalone="no"?>
<svg width="38px" height="38px" viewBox="0 0 38 38" version="1.1" xmlns="http://www.w3.org/2000/svg" xmlns:xlink="http://www.w3.org/1999/xlink">
    <!-- Generator: Sketch 49.1 (51147) - http://www.bohemiancoding.com/sketch -->
    <title>二维码</title>
    <desc>Created with Sketch.</desc>
    <defs></defs>
    <g id="Page-1" stroke="none" stroke-width="1" fill="none" fill-rule="evenodd" fill-opacity="0.55">
        <g id="系统管理－小程序二维码-创建" transform="translate(-474.000000, -382.000000)" fill="#17233D" fill-rule="nonzero">
            <g id="弹窗" transform="translate(272.000000, 88.000000)">
                <g id="Group-7" transform="translate(24.000000, 285.000000)">
                    <g id="二维码" transform="translate(178.000000, 9.000000)">
                        <path d="M0,17.3990018 L17.3990018,17.3990018 L17.3990018,2.84217094e-14 L0,2.84217094e-14 L0,17.3990018 Z M2.89983362,2.89983362 L14.4991682,2.89983362 L14.4991682,14.4991682 L2.89983362,14.4991682 L2.89983362,2.89983362 Z M20.6008048,0 L20.6008048,17.3990018 L37.9998067,17.3990018 L37.9998067,0 L20.6008048,0 Z M35.099973,14.4991682 L23.5006385,14.4991682 L23.5006385,2.89983362 L35.099973,2.89983362 L35.099973,14.4991682 Z M0,37.9998067 L17.3990018,37.9998067 L17.3990018,20.6008048 L0,20.6008048 L0,37.9998067 Z M2.89983362,23.5006385 L14.4991682,23.5006385 L14.4991682,35.099973 L2.89983362,35.099973 L2.89983362,23.5006385 Z" id="Shape"></path>
                        <path d="M5.79966728,5.79966728 L11.5993346,5.79966728 L11.5993346,11.5993346 L5.79966728,11.5993346 L5.79966728,5.79966728 Z M26.4004721,5.79966728 L32.2001394,5.79966728 L32.2001394,11.5993346 L26.4004721,11.5993346 L26.4004721,5.79966728 Z M5.79966728,26.4004721 L11.5993346,26.4004721 L11.5993346,32.2001394 L5.79966728,32.2001394 L5.79966728,26.4004721 Z M29.3003058,20.6008048 L20.6008048,20.6008048 L20.6008048,32.2001394 L23.5006385,32.2001394 L23.5006385,23.5006385 L29.3003058,23.5006385 L29.3003058,20.6008048 Z M20.6008048,35.099973 L23.5006385,35.099973 L23.5006385,37.9998067 L20.6008048,37.9998067 L20.6008048,35.099973 Z M35.099973,20.6008048 L37.9998067,20.6008048 L37.9998067,23.5006385 L35.099973,23.5006385 L35.099973,20.6008048 Z M35.099973,35.099973 L29.3003058,35.099973 L29.3003058,37.9998067 L37.9998067,37.9998067 L37.9998067,26.4004721 L35.099973,26.4004721 L35.099973,35.099973 Z" id="Shape"></path>
                        <polygon id="Shape" points="32.2001394 32.2001394 32.2001394 29.3003058 29.3003058 29.3003058 29.3003058 26.4004721 26.4004721 26.4004721 26.4004721 32.2001394"></polygon>
                    </g>
                </g>
            </g>
        </g>
    </g>
</svg>